<mxfile host="Electron" agent="Mozilla/5.0 (X11; Linux x86_64) AppleWebKit/537.36 (KHTML, like Gecko) draw.io/28.2.5 Chrome/138.0.7204.251 Electron/37.6.1 Safari/537.36" version="28.2.5">
  <diagram id="l33sv3kRKKxV32WhtA3i" name="Page-1">
    <mxGraphModel dx="998" dy="583" grid="1" gridSize="10" guides="1" tooltips="1" connect="1" arrows="1" fold="1" page="1" pageScale="1" pageWidth="850" pageHeight="1100" math="1" shadow="0">
      <root>
        <mxCell id="0" />
        <mxCell id="1" parent="0" />
        <mxCell id="So3fbNhYB9huPskEMkb6-1" value="" style="verticalLabelPosition=bottom;shadow=0;dashed=0;align=center;html=1;verticalAlign=top;shape=mxgraph.electrical.transistors.nmos;pointerEvents=1;fillColor=none;strokeWidth=2;" parent="1" vertex="1">
          <mxGeometry x="260" y="280" width="60" height="100" as="geometry" />
        </mxCell>
        <mxCell id="So3fbNhYB9huPskEMkb6-2" value="" style="pointerEvents=1;verticalLabelPosition=bottom;shadow=0;dashed=0;align=center;html=1;verticalAlign=top;shape=mxgraph.electrical.resistors.resistor_1;direction=south;fillColor=none;strokeWidth=2;" parent="1" vertex="1">
          <mxGeometry x="310" y="170" width="20" height="100" as="geometry" />
        </mxCell>
        <mxCell id="So3fbNhYB9huPskEMkb6-3" value="" style="endArrow=none;html=1;rounded=0;strokeWidth=2;" parent="1" edge="1">
          <mxGeometry width="50" height="50" relative="1" as="geometry">
            <mxPoint x="260" y="330" as="sourcePoint" />
            <mxPoint x="260" y="280" as="targetPoint" />
          </mxGeometry>
        </mxCell>
        <mxCell id="So3fbNhYB9huPskEMkb6-4" value="" style="endArrow=none;html=1;rounded=0;strokeWidth=2;" parent="1" edge="1">
          <mxGeometry width="50" height="50" relative="1" as="geometry">
            <mxPoint x="320" y="280" as="sourcePoint" />
            <mxPoint x="320" y="280" as="targetPoint" />
            <Array as="points">
              <mxPoint x="290" y="280" />
              <mxPoint x="260" y="280" />
            </Array>
          </mxGeometry>
        </mxCell>
        <mxCell id="So3fbNhYB9huPskEMkb6-5" value="" style="endArrow=none;html=1;rounded=0;strokeWidth=2;" parent="1" edge="1">
          <mxGeometry width="50" height="50" relative="1" as="geometry">
            <mxPoint x="320" y="290" as="sourcePoint" />
            <mxPoint x="320" y="260" as="targetPoint" />
          </mxGeometry>
        </mxCell>
        <mxCell id="So3fbNhYB9huPskEMkb6-6" value="" style="pointerEvents=1;verticalLabelPosition=bottom;shadow=0;dashed=0;align=center;html=1;verticalAlign=top;shape=mxgraph.electrical.signal_sources.signal_ground;strokeWidth=2;" parent="1" vertex="1">
          <mxGeometry x="310" y="370" width="20" height="20" as="geometry" />
        </mxCell>
        <mxCell id="So3fbNhYB9huPskEMkb6-7" value="&lt;font style=&quot;font-size: 16px;&quot;&gt;$$g_{m2}$$&lt;/font&gt;" style="text;html=1;strokeColor=none;fillColor=none;align=center;verticalAlign=middle;whiteSpace=wrap;rounded=0;strokeWidth=2;" parent="1" vertex="1">
          <mxGeometry x="320" y="290" width="40" height="30" as="geometry" />
        </mxCell>
        <mxCell id="So3fbNhYB9huPskEMkb6-8" value="&lt;font style=&quot;font-size: 16px;&quot;&gt;$$R_{sw}$$&lt;/font&gt;" style="text;html=1;strokeColor=none;fillColor=none;align=center;verticalAlign=middle;whiteSpace=wrap;rounded=0;strokeWidth=2;" parent="1" vertex="1">
          <mxGeometry x="270" y="200" width="40" height="30" as="geometry" />
        </mxCell>
        <mxCell id="So3fbNhYB9huPskEMkb6-10" value="" style="endArrow=none;html=1;rounded=0;strokeWidth=2;" parent="1" edge="1">
          <mxGeometry width="50" height="50" relative="1" as="geometry">
            <mxPoint x="320" y="160" as="sourcePoint" />
            <mxPoint x="400" y="160" as="targetPoint" />
          </mxGeometry>
        </mxCell>
        <mxCell id="So3fbNhYB9huPskEMkb6-11" value="" style="endArrow=none;html=1;rounded=0;strokeWidth=2;" parent="1" edge="1">
          <mxGeometry width="50" height="50" relative="1" as="geometry">
            <mxPoint x="319.94" y="160" as="sourcePoint" />
            <mxPoint x="319.94" y="180" as="targetPoint" />
          </mxGeometry>
        </mxCell>
        <mxCell id="So3fbNhYB9huPskEMkb6-12" value="" style="pointerEvents=1;verticalLabelPosition=bottom;shadow=0;dashed=0;align=center;html=1;verticalAlign=top;shape=mxgraph.electrical.capacitors.capacitor_1;direction=south;fillColor=none;strokeWidth=2;" parent="1" vertex="1">
          <mxGeometry x="390" y="260" width="20" height="40" as="geometry" />
        </mxCell>
        <mxCell id="So3fbNhYB9huPskEMkb6-13" value="" style="endArrow=none;html=1;rounded=0;strokeWidth=2;" parent="1" edge="1">
          <mxGeometry width="50" height="50" relative="1" as="geometry">
            <mxPoint x="399.89000000000004" y="160" as="sourcePoint" />
            <mxPoint x="399.89" y="260" as="targetPoint" />
          </mxGeometry>
        </mxCell>
        <mxCell id="So3fbNhYB9huPskEMkb6-14" value="" style="pointerEvents=1;verticalLabelPosition=bottom;shadow=0;dashed=0;align=center;html=1;verticalAlign=top;shape=mxgraph.electrical.signal_sources.signal_ground;fillColor=none;strokeWidth=2;" parent="1" vertex="1">
          <mxGeometry x="390" y="295" width="20" height="20" as="geometry" />
        </mxCell>
        <mxCell id="So3fbNhYB9huPskEMkb6-15" value="&lt;font style=&quot;font-size: 16px;&quot;&gt;$$C_{L}$$&lt;/font&gt;" style="text;html=1;strokeColor=none;fillColor=none;align=center;verticalAlign=middle;whiteSpace=wrap;rounded=0;strokeWidth=2;" parent="1" vertex="1">
          <mxGeometry x="360" y="250" width="40" height="30" as="geometry" />
        </mxCell>
      </root>
    </mxGraphModel>
  </diagram>
</mxfile>
